<?xml version="1.0" standalone="no"?>
<!DOCTYPE svg PUBLIC "-//W3C//DTD SVG 20010904//EN"
 "http://www.w3.org/TR/2001/REC-SVG-20010904/DTD/svg10.dtd">
<svg version="1.0" xmlns="http://www.w3.org/2000/svg"
 width="689.000000pt" height="689.000000pt" viewBox="0 0 689.000000 689.000000"
 preserveAspectRatio="xMidYMid meet">
<metadata>
Created by potrace 1.11, written by Peter Selinger 2001-2013
</metadata>
<g transform="translate(0.000000,689.000000) scale(0.100000,-0.100000)"
fill="#000000" stroke="none">
<path d="M3352 6209 c-9 -4 -37 -9 -62 -12 -25 -3 -64 -13 -87 -21 -24 -8 -43
-13 -43 -11 0 8 -175 -87 -215 -116 -52 -38 -175 -157 -175 -170 0 -5 -304 -9
-793 -9 -436 1 -802 -2 -813 -6 -40 -15 -83 -56 -98 -95 -13 -31 -16 -80 -16
-235 0 -207 6 -243 52 -292 49 -51 67 -53 816 -53 380 0 692 -3 693 -7 8 -72
82 -237 147 -324 77 -104 187 -197 294 -249 l47 -23 0 -1583 0 -1583 -974 -2
c-965 -3 -974 -3 -1002 -24 -15 -11 -38 -40 -50 -64 -22 -42 -23 -56 -23 -245
0 -225 10 -266 69 -301 17 -10 31 -21 31 -24 0 -9 -180 -8 2294 -9 l2259 -1
45 26 c74 43 82 73 82 309 0 189 -1 203 -22 245 -13 24 -36 53 -51 64 -28 21
-37 21 -1003 24 l-974 2 0 1583 0 1583 53 26 c29 14 85 50 125 80 63 47 92 77
180 184 29 35 91 166 114 241 l22 72 690 0 c756 0 764 1 818 58 42 46 48 82
48 292 0 232 -8 262 -83 306 l-45 26 -794 0 -793 1 -30 36 c-113 141 -321 260
-510 291 -81 14 -199 19 -223 10z"/>
<path d="M1325 4838 c-78 -10 -118 -23 -190 -64 -54 -30 -157 -117 -162 -137
-5 -22 -327 -643 -337 -649 -6 -4 -8 -8 -3 -8 9 0 -92 -203 -107 -212 -6 -4
-8 -8 -3 -8 10 0 -32 -83 -47 -92 -6 -4 -8 -8 -3 -8 9 0 -92 -203 -107 -212
-6 -4 -8 -8 -3 -8 10 0 -22 -62 -37 -72 -6 -4 -8 -8 -3 -8 9 0 -72 -163 -87
-172 -6 -4 -8 -8 -3 -8 9 0 -62 -143 -77 -152 -6 -4 -8 -8 -4 -8 3 0 -18 -54
-48 -120 -76 -168 -87 -217 -74 -324 6 -48 15 -97 20 -110 5 -13 6 -27 3 -30
-4 -3 -1 -6 5 -6 7 0 12 -6 12 -13 0 -7 21 -48 46 -92 87 -148 270 -298 472
-385 53 -23 106 -45 117 -50 30 -14 236 -70 257 -70 10 0 18 -3 18 -7 0 -5 15
-8 33 -8 17 -1 75 -7 127 -13 92 -13 360 -16 470 -6 138 12 332 58 478 113 56
22 102 36 102 33 0 -4 4 -2 8 4 4 5 36 25 72 43 124 63 248 163 344 276 36 42
104 179 121 245 21 79 19 185 -5 264 -23 74 -871 1779 -927 1863 -98 148 -294
234 -478 211z m280 -928 c118 -236 212 -430 208 -430 -5 0 -3 -4 3 -8 13 -8
327 -632 318 -632 -3 0 2 -7 10 -16 9 -8 16 -20 16 -25 0 -5 -309 -9 -775 -8
l-774 0 387 774 c213 426 388 775 389 775 2 0 99 -193 218 -430z"/>
<path d="M5440 4839 c-30 -3 -73 -11 -95 -18 -38 -11 -124 -50 -135 -61 -3 -3
-26 -22 -51 -42 -26 -21 -62 -61 -82 -90 -36 -55 -805 -1586 -881 -1756 -24
-53 -49 -115 -55 -137 -15 -54 -14 -169 3 -231 13 -48 62 -168 78 -189 90
-120 149 -178 260 -256 45 -33 89 -64 96 -69 6 -6 12 -8 12 -5 0 3 27 -8 60
-25 166 -84 366 -141 595 -170 114 -15 433 -12 535 4 25 4 57 10 73 12 283 45
596 185 782 351 87 78 183 246 210 367 6 30 8 179 1 206 -7 34 -75 189 -137
313 -27 53 -46 97 -42 97 5 0 3 4 -3 8 -14 9 -326 632 -316 632 4 0 2 4 -4 8
-6 4 -57 99 -114 212 -131 262 -303 596 -326 635 -38 65 -205 181 -278 193
-89 13 -139 17 -186 11z m72 -539 c2 -8 6 -17 9 -20 4 -3 173 -339 378 -747
l371 -743 -775 0 c-426 0 -775 2 -775 5 0 13 224 451 234 457 6 4 8 8 4 8 -10
0 461 943 476 952 6 4 8 8 3 8 -4 0 7 28 24 62 31 60 41 64 51 18z"/>
</g>
</svg>
