<?xml version="1.0" standalone="no"?>
<!DOCTYPE svg PUBLIC "-//W3C//DTD SVG 20010904//EN"
 "http://www.w3.org/TR/2001/REC-SVG-20010904/DTD/svg10.dtd">
<svg version="1.0" xmlns="http://www.w3.org/2000/svg"
 width="1280.000000pt" height="1259.000000pt" viewBox="0 0 1280.000000 1259.000000"
 preserveAspectRatio="xMidYMid meet">
<metadata>
Created by potrace 1.15, written by Peter Selinger 2001-2017
</metadata>
<g transform="translate(0.000000,1259.000000) scale(0.100000,-0.100000)"
fill="#000000" stroke="none">
<path d="M6318 12569 c-10 -5 -18 -15 -18 -22 0 -7 -9 -23 -20 -37 -11 -14
-20 -36 -20 -50 0 -14 -7 -34 -15 -45 -17 -22 -11 -77 11 -110 21 -30 16 -85
-12 -134 -22 -39 -23 -46 -9 -53 19 -11 19 -45 0 -92 l-15 -36 95 0 95 0 -21
42 c-16 32 -20 53 -16 89 4 30 1 53 -7 65 -7 11 -15 31 -18 46 -4 20 0 28 15
32 17 4 19 10 13 45 -3 21 -9 47 -12 56 -4 10 -2 15 7 13 20 -4 14 44 -12 98
-15 33 -18 48 -10 58 17 20 -9 48 -31 35z"/>
<path d="M6176 11940 c-9 -22 -16 -43 -16 -45 0 -3 70 -5 155 -5 l155 0 -22
45 -22 45 -117 0 -117 0 -16 -40z"/>
<path d="M6137 11874 c-4 -4 -7 -16 -7 -26 0 -12 -7 -18 -22 -18 -20 0 -21 -1
-3 -20 17 -19 31 -20 205 -20 174 0 188 1 205 20 18 19 17 20 -3 20 -14 0 -22
7 -24 23 -3 22 -5 22 -174 25 -93 1 -173 -1 -177 -4z"/>
<path d="M6137 11773 c-13 -12 -7 -33 8 -33 13 0 15 -22 15 -140 0 -133 1
-140 20 -140 19 0 20 7 20 140 0 133 1 140 20 140 19 0 20 -7 20 -140 0 -133
1 -140 20 -140 19 0 20 7 20 140 l0 140 25 0 25 0 0 -140 c0 -133 1 -140 20
-140 19 0 20 7 20 140 l0 140 25 0 25 0 0 -140 c0 -133 1 -140 20 -140 19 0
20 7 20 140 0 118 2 140 15 140 8 0 15 9 15 20 0 19 -7 20 -173 20 -96 0 -177
-3 -180 -7z"/>
<path d="M6120 11430 c0 -11 -5 -20 -10 -20 -7 0 -8 -18 -4 -50 5 -34 3 -50
-5 -50 -6 0 -11 -7 -11 -15 0 -13 31 -15 220 -15 189 0 220 2 220 15 0 8 -4
15 -10 15 -13 0 -13 53 1 67 7 7 6 15 -5 26 -9 9 -16 23 -16 31 0 14 -24 16
-190 16 -183 0 -190 -1 -190 -20z"/>
<path d="M6308 11252 l-288 -2 0 -30 c0 -17 -4 -30 -10 -30 -5 0 -10 -9 -10
-20 0 -20 7 -20 311 -20 l310 0 -7 48 c-3 26 -9 49 -13 52 -3 3 -135 4 -293 2z"/>
<path d="M5919 11082 c-147 -97 -274 -261 -338 -437 -34 -94 -61 -216 -61
-275 l0 -40 43 0 43 0 11 98 c34 282 165 532 353 675 56 42 29 31 -51 -21z
m-311 -615 c-10 -47 -15 -57 -30 -57 -12 0 -3 72 13 103 17 31 28 2 17 -46z"/>
<path d="M5990 11096 c-138 -102 -242 -250 -305 -437 -30 -88 -55 -215 -55
-280 l0 -49 40 0 c35 0 40 3 40 23 0 12 3 40 5 62 5 32 4 36 -4 18 -18 -39
-34 -28 -27 18 8 48 24 82 35 75 4 -3 18 36 30 87 45 184 125 339 232 449 37
37 64 68 60 68 -3 0 -26 -15 -51 -34z"/>
<path d="M6037 11095 c-154 -117 -282 -408 -304 -687 l-6 -78 45 0 c53 0 58
10 57 100 -1 47 -3 50 -8 20 -4 -26 -11 -35 -26 -35 -18 0 -20 6 -17 45 5 67
34 93 52 48 8 -22 9 -22 9 5 2 89 62 299 118 411 41 84 65 119 112 169 44 47
28 48 -32 2z"/>
<path d="M6088 11093 c-132 -140 -219 -383 -244 -680 l-7 -83 61 0 60 0 6 68
c31 347 80 549 166 685 25 40 27 47 12 47 -10 0 -34 -17 -54 -37z m-140 -575
c5 -7 7 -33 3 -58 -4 -33 -11 -46 -25 -48 -25 -5 -35 14 -29 57 7 52 11 61 26
61 8 0 19 -6 25 -12z"/>
<path d="M6162 11103 c-91 -130 -161 -388 -178 -660 l-7 -113 67 0 66 0 0 93
c1 201 47 537 91 651 23 62 23 56 0 56 -11 0 -28 -12 -39 -27z m-82 -592 c12
-24 13 -71 1 -89 -5 -8 -17 -12 -27 -10 -15 2 -20 13 -22 47 -2 24 -1 50 2 57
8 20 34 17 46 -5z"/>
<path d="M6231 11113 c-46 -88 -92 -388 -105 -680 l-4 -103 53 0 53 0 6 158
c8 211 26 536 33 595 5 39 3 47 -10 47 -9 0 -20 -8 -26 -17z m-16 -643 c0 -46
-3 -55 -19 -58 -24 -5 -36 14 -36 59 0 38 16 61 40 57 11 -3 15 -17 15 -58z"/>
<path d="M6286 11093 c-12 -79 -26 -305 -33 -530 l-6 -233 63 0 63 0 -6 263
c-6 242 -19 460 -32 515 -3 13 -13 22 -24 22 -14 0 -21 -9 -25 -37z m49 -623
c0 -46 -3 -55 -19 -58 -24 -5 -36 14 -36 59 0 38 16 61 40 57 11 -3 15 -17 15
-58z"/>
<path d="M6354 11088 c11 -80 25 -311 32 -535 l7 -223 55 0 54 0 -7 128 c-18
356 -77 660 -129 670 -17 4 -18 -1 -12 -40z m101 -618 c0 -46 -3 -55 -19 -58
-24 -5 -36 14 -36 59 0 38 16 61 40 57 11 -3 15 -17 15 -58z"/>
<path d="M6422 11073 c45 -129 88 -436 88 -635 l0 -108 67 0 66 0 -7 120 c-14
260 -88 534 -173 648 -13 17 -32 32 -43 32 -18 0 -18 -2 2 -57z m166 -606 c3
-56 2 -58 -20 -55 -19 2 -23 10 -26 47 -4 54 3 73 25 69 14 -2 19 -15 21 -61z"/>
<path d="M6473 11112 c30 -33 96 -188 122 -283 29 -111 51 -254 61 -396 l7
-103 58 0 59 0 0 51 c0 76 -28 248 -56 347 -51 180 -187 402 -247 402 -19 0
-19 -1 -4 -18z m251 -629 c5 -23 6 -49 3 -57 -8 -21 -43 -21 -51 0 -8 21 -8
89 1 98 17 17 39 -2 47 -41z"/>
<path d="M6550 11103 c67 -88 85 -113 110 -163 54 -108 120 -329 120 -405 0
-27 9 -32 26 -15 16 16 30 -7 39 -57 5 -35 4 -44 -10 -49 -21 -8 -35 11 -35
50 0 16 -3 27 -6 23 -3 -3 -3 -40 1 -81 l7 -76 44 0 44 0 0 54 c0 73 -24 207
-56 308 -50 159 -140 308 -236 392 -59 52 -80 60 -48 19z"/>
<path d="M6626 11078 c110 -104 200 -273 246 -462 16 -65 28 -96 39 -99 23 -6
41 -107 19 -107 -6 0 -15 10 -21 23 -9 21 -9 21 -4 -3 2 -14 5 -42 5 -62 l0
-38 46 0 45 0 -6 58 c-34 305 -156 551 -343 693 -36 27 -69 49 -73 49 -4 0 17
-23 47 -52z"/>
<path d="M6640 11113 c100 -71 219 -222 274 -347 53 -119 96 -297 96 -393 l0
-43 49 0 50 0 -6 58 c-29 296 -216 603 -437 717 -28 14 -40 18 -26 8z m400
-619 c12 -32 13 -84 1 -84 -11 0 -31 55 -31 86 0 32 18 30 30 -2z"/>
<path d="M6813 11021 c113 -104 207 -252 256 -406 15 -46 32 -90 39 -97 16
-20 32 -97 21 -104 -5 -3 -9 -23 -9 -45 0 -36 2 -39 26 -39 l27 0 -7 69 c-22
244 -181 519 -376 650 -21 15 -12 4 23 -28z"/>
<path d="M5778 11006 c-158 -131 -271 -328 -312 -546 -22 -115 -21 -130 8
-130 20 0 25 6 28 38 3 20 1 40 -5 43 -12 8 -1 76 17 104 7 11 23 52 35 90 49
154 133 291 245 398 33 31 57 57 55 57 -3 0 -35 -24 -71 -54z"/>
<path d="M5420 10296 c0 -9 -12 -16 -32 -18 -31 -3 -33 -6 -36 -45 l-3 -43
960 0 961 0 0 45 c0 45 0 45 -35 45 -24 0 -35 5 -35 15 0 13 -106 15 -890 15
-767 0 -890 -2 -890 -14z"/>
<path d="M5325 10158 c-3 -7 -11 -32 -19 -55 l-15 -43 1020 0 1020 0 -7 23
c-3 12 -12 37 -20 55 l-13 32 -981 0 c-775 0 -982 -3 -985 -12z"/>
<path d="M5290 9820 l0 -210 1025 0 1025 0 0 210 0 210 -1025 0 -1025 0 0
-210z m100 -32 c0 -89 -3 -108 -15 -108 -12 0 -15 19 -15 113 0 63 3 117 7
120 15 16 23 -24 23 -125z m70 6 c0 -69 -4 -114 -10 -114 -6 0 -10 47 -10 121
0 77 4 118 10 114 6 -4 10 -55 10 -121z m110 -6 c0 -89 -3 -108 -15 -108 -12
0 -15 19 -15 113 0 63 3 117 7 120 15 16 23 -24 23 -125z m120 1 l0 -109 -25
0 -25 0 0 108 c0 112 10 143 37 121 9 -8 13 -42 13 -120z m124 125 c13 -5 16
-25 16 -120 l0 -114 -30 0 -30 0 0 108 c0 71 4 112 12 120 14 14 12 14 32 6z
m154 -6 c8 -8 12 -49 12 -120 l0 -108 -30 0 -30 0 0 114 c0 109 3 121 31 125
3 1 10 -4 17 -11z m180 0 c8 -8 12 -49 12 -120 l0 -108 -35 0 -35 0 0 108 c0
105 7 132 35 132 6 0 16 -5 23 -12z m170 0 c8 -8 12 -49 12 -120 l0 -108 -30
0 -30 0 0 114 c0 109 3 121 31 125 3 1 10 -4 17 -11z m170 0 c8 -8 12 -49 12
-120 l0 -108 -30 0 -30 0 0 114 c0 109 3 121 31 125 3 1 10 -4 17 -11z m170 0
c8 -8 12 -49 12 -120 l0 -108 -35 0 -35 0 0 108 c0 105 7 132 35 132 6 0 16
-5 23 -12z m156 6 c13 -5 16 -25 16 -120 l0 -114 -30 0 -30 0 0 108 c0 71 4
112 12 120 14 14 12 14 32 6z m134 -117 c3 -112 2 -117 -18 -117 -19 0 -20 6
-20 104 0 110 5 139 24 133 7 -2 12 -45 14 -120z m132 3 c0 -73 -4 -120 -10
-120 -6 0 -10 44 -10 113 0 100 4 127 17 127 2 0 3 -54 3 -120z m120 -12 c0
-89 -3 -108 -15 -108 -12 0 -15 19 -15 113 0 63 3 117 7 120 15 16 23 -24 23
-125z m68 -6 c-2 -65 -7 -97 -15 -100 -10 -3 -13 24 -13 111 0 62 3 117 7 121
15 15 24 -41 21 -132z"/>
<path d="M6305 9570 l-1169 -5 -18 -47 -18 -48 1211 0 1210 0 -7 23 c-10 35
-33 87 -36 85 -2 -2 -529 -5 -1173 -8z"/>
<path d="M5090 9380 l0 -50 1220 0 1220 0 0 50 0 50 -1220 0 -1220 0 0 -50z"/>
<path d="M5110 9056 l0 -256 30 0 30 0 -2 253 -3 252 -27 3 -28 3 0 -255z"/>
<path d="M5210 9055 l0 -255 30 0 30 0 0 255 0 255 -30 0 -30 0 0 -255z"/>
<path d="M5310 9055 l0 -255 30 0 30 0 0 255 0 255 -30 0 -30 0 0 -255z"/>
<path d="M5437 9303 c-4 -3 -7 -118 -7 -255 l0 -248 30 0 30 0 0 255 0 255
-23 0 c-13 0 -27 -3 -30 -7z"/>
<path d="M5610 9056 l0 -256 30 0 30 0 -2 253 -3 252 -27 3 -28 3 0 -255z"/>
<path d="M5780 9055 l0 -255 30 0 30 0 0 255 0 255 -30 0 -30 0 0 -255z"/>
<path d="M5980 9055 l0 -255 30 0 30 0 0 255 0 255 -30 0 -30 0 0 -255z"/>
<path d="M6190 9056 l0 -256 30 0 30 0 -2 253 -3 252 -27 3 -28 3 0 -255z"/>
<path d="M6380 9056 l0 -256 30 0 30 0 -2 253 -3 252 -27 3 -28 3 0 -255z"/>
<path d="M6590 9056 l0 -256 30 0 30 0 -2 253 -3 252 -27 3 -28 3 0 -255z"/>
<path d="M6797 9303 c-4 -3 -7 -118 -7 -255 l0 -248 30 0 30 0 0 255 0 255
-23 0 c-13 0 -27 -3 -30 -7z"/>
<path d="M6970 9056 l0 -256 30 0 30 0 -2 253 -3 252 -27 3 -28 3 0 -255z"/>
<path d="M7140 9056 l0 -256 28 0 27 0 -2 252 -2 253 -26 3 -25 3 0 -255z"/>
<path d="M7267 9303 c-4 -3 -7 -118 -7 -255 l0 -248 30 0 30 0 0 255 0 255
-23 0 c-13 0 -27 -3 -30 -7z"/>
<path d="M7367 9303 c-4 -3 -7 -118 -7 -255 l0 -248 30 0 30 0 0 255 0 255
-23 0 c-13 0 -27 -3 -30 -7z"/>
<path d="M7460 9056 l0 -256 30 0 30 0 -2 253 -3 252 -27 3 -28 3 0 -255z"/>
<path d="M5090 8725 l0 -55 -40 0 -40 0 0 -50 0 -50 558 -1 c481 -1 553 -3
527 -14 -24 -11 -132 -14 -557 -15 l-527 0 -3 -97 -3 -98 -1315 4 -1316 4 5
-44 5 -44 7 35 6 35 2 -37 c1 -28 -3 -38 -14 -38 -9 0 -18 -12 -21 -30 -4 -16
-10 -30 -15 -30 -5 0 -9 -9 -9 -20 0 -20 8 -20 1038 -23 l1037 -2 -1037 -3
-1038 -2 0 -58 0 -59 1527 -6 c839 -4 1529 -9 1532 -13 12 -11 13 -704 2 -704
-7 0 -11 -24 -11 -60 0 -57 -1 -60 -25 -60 -16 0 -25 -6 -25 -15 0 -13 -176
-15 -1497 -17 l-1498 -3 0 -250 0 -250 3963 -3 3962 -2 0 255 0 255 -1479 0
c-1305 0 -1480 2 -1485 15 -3 8 -15 15 -26 15 -18 0 -20 6 -20 60 0 47 -3 60
-15 60 -13 0 -15 42 -15 320 0 207 4 320 10 320 6 0 10 15 10 33 l0 34 707 6
c388 4 1070 7 1515 7 l808 0 0 60 0 60 -1042 3 -1043 2 1043 3 c1035 2 1042 2
1042 22 0 11 -6 20 -14 20 -14 0 -26 49 -26 114 l0 39 -1310 -5 -1310 -5 0 98
0 99 -522 0 c-435 1 -527 3 -548 15 -22 13 43 14 523 15 l547 0 0 50 0 50 -45
0 -45 0 0 55 0 55 -1220 0 -1220 0 0 -55z m-2270 -425 c0 -38 -2 -40 -30 -40
-28 0 -30 3 -30 35 0 24 5 35 15 35 10 0 15 -10 15 -30 0 -16 4 -30 9 -30 5 0
7 9 4 20 -5 20 2 50 12 50 3 0 5 -18 5 -40z m90 -6 c0 -19 -4 -34 -10 -34 -5
0 -10 18 -10 41 0 24 4 38 10 34 6 -3 10 -22 10 -41z m257 -16 c-2 -13 -4 -3
-4 22 0 25 2 35 4 23 2 -13 2 -33 0 -45z m280 0 c-2 -13 -4 -3 -4 22 0 25 2
35 4 23 2 -13 2 -33 0 -45z m250 0 c-2 -13 -4 -3 -4 22 0 25 2 35 4 23 2 -13
2 -33 0 -45z m193 22 c0 -36 -2 -40 -25 -40 -22 0 -25 4 -25 35 0 44 20 46 21
3 1 -27 2 -28 6 -8 10 62 23 67 23 10z m90 -1 c0 -16 4 -29 8 -29 5 0 7 14 4
30 -3 18 0 30 7 30 6 0 12 -15 12 -32 l2 -33 7 35 7 35 2 -32 c1 -41 21 -44
21 -3 0 41 20 38 22 -2 l1 -33 4 33 c2 17 8 32 14 32 5 0 10 -15 11 -32 l1
-33 4 33 c6 45 33 43 33 -3 l0 -35 -90 0 -90 0 0 41 c0 24 4 38 10 34 6 -3 10
-19 10 -36z m177 -21 c-2 -13 -4 -3 -4 22 0 25 2 35 4 23 2 -13 2 -33 0 -45z
m4180 0 c-2 -13 -4 -3 -4 22 0 25 2 35 4 23 2 -13 2 -33 0 -45z m583 22 c0
-38 -2 -40 -30 -40 -28 0 -30 3 -30 35 0 24 5 35 15 35 10 0 15 -10 15 -30 0
-16 4 -30 9 -30 5 0 7 9 4 20 -5 20 2 50 12 50 3 0 5 -18 5 -40z m90 -6 c0
-19 -4 -34 -10 -34 -5 0 -10 18 -10 41 0 24 4 38 10 34 6 -3 10 -22 10 -41z
m280 0 c0 -19 -4 -34 -10 -34 -5 0 -10 18 -10 41 0 24 4 38 10 34 6 -3 10 -22
10 -41z m507 -16 c-2 -13 -4 -3 -4 22 0 25 2 35 4 23 2 -13 2 -33 0 -45z m193
22 l0 -40 -90 0 -90 0 0 35 c0 19 5 35 10 35 6 0 10 -13 10 -30 0 -16 5 -30
10 -30 6 0 10 14 10 30 0 23 4 30 20 30 26 0 28 -46 3 -53 -14 -4 -12 -5 5 -6
18 -1 22 4 22 29 0 25 4 30 25 30 21 0 25 -5 25 -30 0 -16 5 -30 11 -30 7 0
10 12 7 30 -4 25 0 33 20 39 1 1 2 -17 2 -39z m90 -1 c0 -16 4 -29 8 -29 5 0
7 14 4 30 -4 25 -1 30 17 30 17 0 21 -6 21 -30 0 -16 5 -30 11 -30 7 0 10 12
7 30 -3 20 0 30 9 30 8 0 14 -13 15 -32 l1 -33 4 33 c2 17 8 32 14 32 5 0 10
-15 11 -32 l1 -33 4 33 c6 43 23 41 23 -3 l0 -35 -85 0 -85 0 0 41 c0 24 4 38
10 34 6 -3 10 -19 10 -36z m-7632 1 c-3 -16 -1 -30 4 -30 4 0 8 14 8 30 0 43
29 41 32 -2 l1 -33 4 33 c5 40 23 42 23 2 0 -16 4 -30 8 -30 5 0 7 14 4 30 -3
18 0 30 7 30 6 0 11 -16 11 -35 l0 -35 -70 0 -70 0 0 35 c0 29 4 35 21 35 18
0 21 -5 17 -30z m191 -2 c0 17 6 32 11 32 6 0 11 -15 12 -32 l1 -33 4 33 c5
40 23 42 23 2 0 -16 5 -30 11 -30 7 0 10 12 7 30 -3 20 0 30 9 30 8 0 13 -13
13 -35 l0 -35 -55 0 -55 0 1 38 2 37 7 -35 7 -35 2 33z m108 -20 c-2 -13 -4
-5 -4 17 -1 22 1 32 4 23 2 -10 2 -28 0 -40z m195 20 l1 -33 4 33 c6 45 33 43
33 -3 0 -32 -2 -35 -30 -35 -28 0 -30 3 -30 35 0 44 19 46 22 3z m67 0 c0 19
6 32 14 32 9 0 12 -10 9 -30 -3 -18 0 -30 7 -30 6 0 11 14 11 30 0 23 4 30 20
30 16 0 20 -7 20 -35 l0 -35 -50 0 -50 0 1 38 2 37 7 -35 7 -35 2 33z m201 8
c0 -13 -6 -27 -12 -29 -8 -3 -6 -6 5 -6 12 -1 17 7 17 29 0 17 5 30 10 30 6 0
10 -16 10 -35 0 -32 -2 -35 -30 -35 -28 0 -30 3 -30 35 0 24 5 35 15 35 9 0
15 -9 15 -24z m70 -6 c0 -25 4 -30 23 -29 16 1 18 2 5 6 -11 3 -18 14 -18 29
0 19 5 24 25 24 22 0 25 -4 25 -35 0 -35 0 -35 -45 -35 -45 0 -45 0 -45 35 0
24 5 35 15 35 10 0 15 -10 15 -30z m212 -2 l1 -33 4 33 c6 43 23 41 23 -3 0
-32 -2 -35 -30 -35 -28 0 -30 3 -30 35 0 47 29 49 32 3z m70 0 l1 -33 5 35 5
35 7 -35 7 -35 2 33 c2 47 31 44 31 -3 0 -35 0 -35 -45 -35 -45 0 -45 0 -45
35 0 47 29 49 32 3z m168 2 c0 -16 5 -30 10 -30 6 0 10 14 10 30 0 23 4 30 20
30 16 0 20 -7 22 -32 l1 -33 4 33 c6 45 33 43 33 -3 l0 -35 -60 0 -60 0 0 35
c0 19 5 35 10 35 6 0 10 -13 10 -30z m518 0 c-3 -16 -1 -30 4 -30 4 0 8 14 8
30 0 41 20 38 22 -2 l1 -33 4 33 c6 45 33 43 33 -3 0 -35 0 -35 -45 -35 -45 0
-45 0 -45 35 0 19 5 35 11 35 7 0 10 -12 7 -30z m101 -2 c0 17 6 32 12 32 7 0
10 -12 7 -30 -3 -16 -1 -30 4 -30 4 0 8 14 8 30 0 17 5 30 10 30 6 0 10 -16
10 -35 0 -33 -2 -35 -35 -35 -34 0 -35 1 -34 38 l2 37 7 -35 7 -35 2 33z m311
-3 c0 -28 -4 -35 -20 -35 -16 0 -20 7 -22 33 l-1 32 -4 -32 -4 -33 -65 0 -64
0 0 35 0 35 90 0 90 0 0 -35z m240 0 c0 -33 -2 -35 -35 -35 -32 0 -35 2 -37
33 l-1 32 -4 -32 c-3 -20 -10 -33 -19 -33 -9 0 -15 12 -16 33 l-1 32 -4 -32
c-3 -20 -10 -33 -19 -33 -9 0 -14 12 -15 33 l-2 32 -7 -35 -7 -35 -2 38 -1 37
85 0 85 0 0 -35z m100 25 c0 -5 7 -10 15 -10 9 0 15 -9 15 -25 0 -21 -5 -25
-30 -25 -28 0 -30 3 -30 35 0 24 5 35 15 35 8 0 15 -4 15 -10z m2650 -25 l0
-35 -90 0 c-89 0 -90 0 -90 25 0 24 2 25 74 25 69 0 75 -2 79 -22 3 -17 5 -14
6 10 1 43 21 41 21 -3z m240 0 l0 -35 -90 0 -90 0 0 35 0 35 90 0 90 0 0 -35z
m240 0 c0 -32 -2 -35 -30 -35 -27 0 -30 3 -32 33 l-1 32 -4 -32 c-3 -20 -10
-33 -19 -33 -9 0 -15 12 -16 33 l-1 32 -4 -32 c-3 -20 -10 -33 -19 -33 -9 0
-15 12 -16 33 l-1 32 -4 -32 c-6 -46 -33 -44 -33 2 l0 35 90 0 90 0 0 -35z
m87 -2 c-3 -10 -5 -4 -5 12 0 17 2 24 5 18 2 -7 2 -21 0 -30z m33 2 c0 -30 -3
-35 -22 -34 -13 0 -17 3 -10 6 6 2 12 18 12 34 0 16 5 29 10 29 6 0 10 -16 10
-35z m32 3 l1 -33 4 33 c6 45 33 43 33 -3 0 -32 -2 -35 -30 -35 -28 0 -30 3
-30 35 0 44 19 46 22 3z m93 -3 c0 -21 -5 -35 -12 -35 -8 0 -13 14 -13 35 0
21 5 35 13 35 7 0 12 -14 12 -35z m103 -24 c11 0 12 3 5 6 -19 7 -16 53 2 53
10 0 15 -11 15 -35 0 -31 -3 -35 -25 -35 -23 0 -25 4 -23 38 1 36 1 36 5 5 3
-23 9 -33 21 -32z m70 29 c-3 -16 -1 -30 4 -30 4 0 8 14 8 30 0 27 3 30 30 30
27 0 30 -3 30 -30 0 -16 4 -30 8 -30 5 0 7 14 4 30 -3 18 0 30 7 30 6 0 11
-16 11 -35 l0 -35 -70 0 -70 0 0 35 c0 29 4 35 21 35 18 0 21 -5 17 -30z m191
-2 c1 43 21 41 21 -3 0 -28 -4 -35 -20 -35 -17 0 -20 6 -19 38 l2 37 7 -35 7
-35 2 33z m51 2 c0 -16 5 -30 10 -30 6 0 10 14 10 30 0 17 5 30 10 30 6 0 10
-16 10 -35 0 -32 -2 -35 -30 -35 -28 0 -30 3 -30 35 0 19 5 35 10 35 6 0 10
-13 10 -30z m57 -22 c-2 -13 -4 -5 -4 17 -1 22 1 32 4 23 2 -10 2 -28 0 -40z
m195 20 l1 -33 4 33 c4 26 9 32 29 32 20 0 24 -5 23 -27 l-1 -28 -8 25 -8 25
-1 -27 c-1 -19 4 -28 14 -28 10 0 15 10 15 30 0 18 5 30 13 30 9 0 12 -10 9
-30 -3 -18 0 -30 7 -30 6 0 11 14 11 30 0 17 5 30 10 30 6 0 10 -16 8 -35 l-2
-35 -73 0 -73 0 0 35 c0 44 19 46 22 3z m278 2 c0 -16 4 -30 8 -30 5 0 7 14 4
30 -4 25 -1 30 17 30 17 0 21 -6 21 -30 0 -16 5 -30 10 -30 6 0 10 14 10 30 0
41 20 38 22 -2 l1 -33 4 33 c6 43 23 41 23 -3 l0 -35 -70 0 -70 0 0 35 c0 19
5 35 10 35 6 0 10 -13 10 -30z m230 -5 c0 -19 -4 -35 -10 -35 -5 0 -10 16 -10
35 0 19 5 35 10 35 6 0 10 -16 10 -35z m42 3 l1 -33 4 33 c6 43 23 41 23 -3 0
-32 -2 -35 -30 -35 -28 0 -30 3 -30 35 0 47 29 49 32 3z m70 0 l1 -33 4 33 c5
40 23 42 23 2 0 -16 4 -30 8 -30 5 0 7 14 4 30 -3 18 0 30 7 30 6 0 11 -16 11
-35 0 -35 0 -35 -45 -35 -45 0 -45 0 -45 35 0 47 29 49 32 3z m-4512 -13 c0
-24 -3 -25 -55 -25 -52 0 -55 1 -55 25 0 24 3 25 55 25 52 0 55 -1 55 -25z
m81 3 l2 -23 4 23 c2 12 11 22 19 22 8 0 15 -10 15 -22 l2 -23 4 23 c2 12 11
22 19 22 8 0 15 -10 15 -22 l2 -23 4 23 c2 12 11 22 19 22 10 0 14 -8 12 -22
-3 -21 -9 -23 -70 -26 -67 -3 -68 -3 -68 23 0 31 19 34 21 3z m136 0 c-3 -8
-6 -5 -6 6 -1 11 2 17 5 13 3 -3 4 -12 1 -19z m1913 7 c0 -17 -2 -18 -24 -9
-23 9 -20 24 4 24 11 0 20 -7 20 -15z m40 -10 c0 -18 -4 -23 -15 -19 -8 4 -15
15 -15 25 0 10 7 19 15 19 9 0 15 -9 15 -25z m40 0 c0 -16 -6 -25 -15 -25 -9
0 -15 9 -15 25 0 16 6 25 15 25 9 0 15 -9 15 -25z m40 0 c0 -16 -6 -25 -15
-25 -9 0 -15 9 -15 25 0 16 6 25 15 25 9 0 15 -9 15 -25z m-633 -72 c-258 -2
-676 -2 -930 0 -254 1 -43 2 468 2 512 0 719 -1 462 -2z m-1629 -20 c-125 -2
-332 -2 -460 0 -128 1 -26 2 227 2 253 0 358 -1 233 -2z m2815 0 c-123 -2
-323 -2 -445 0 -123 1 -23 2 222 2 245 0 345 -1 223 -2z m-2785 -130 c-130 -2
-346 -2 -480 0 -134 1 -27 2 237 2 264 0 373 -1 243 -2z m2775 0 c-128 -2
-338 -2 -465 0 -128 1 -24 2 232 2 256 0 360 -1 233 -2z m-2040 -90 c4 -38 7
-201 7 -364 0 -262 -2 -298 -16 -303 -12 -5 -15 -18 -12 -61 l3 -55 -72 0 -73
0 0 60 c0 37 -4 60 -11 60 -8 0 -10 104 -7 360 l3 360 -40 0 -40 0 3 -360 c3
-256 1 -360 -7 -360 -7 0 -11 -23 -11 -60 l0 -60 -65 0 -65 0 0 60 c0 33 -4
60 -10 60 -11 0 -14 569 -4 658 6 49 8 52 35 52 16 0 29 5 29 10 0 6 65 10
174 10 l173 0 6 -67z m760 0 c11 -113 8 -663 -3 -663 -6 0 -10 -27 -10 -60 l0
-60 -70 0 -70 0 0 60 c0 48 -3 60 -16 60 -14 0 -16 36 -12 360 l3 360 -35 0
-35 0 3 -360 c4 -324 2 -360 -12 -360 -13 0 -16 -12 -16 -60 l0 -60 -70 0 -70
0 0 60 c0 37 -4 60 -11 60 -8 0 -10 104 -7 360 l3 360 -42 0 -43 0 0 -39 c0
-22 5 -43 10 -46 7 -4 10 -116 10 -321 -1 -267 -3 -314 -16 -314 -11 0 -14
-14 -14 -60 l0 -60 -70 0 -70 0 0 60 c0 47 -3 60 -15 60 -13 0 -15 42 -15 319
0 224 3 322 11 327 7 4 9 22 6 45 l-5 39 338 0 337 0 6 -67z m397 57 c0 -5 22
-10 49 -10 l48 0 7 -52 c11 -98 7 -656 -5 -660 -7 -2 -12 -27 -12 -61 l1 -57
-64 0 -64 0 0 60 c0 48 -3 60 -16 60 -14 0 -16 36 -12 360 l3 360 -35 0 -35 0
3 -356 c4 -326 3 -356 -13 -368 -13 -10 -16 -24 -14 -64 l4 -52 -72 0 -73 0 0
60 c0 36 -4 60 -11 60 -8 0 -10 108 -8 365 l3 365 158 0 c99 0 158 -4 158 -10z
m-2442 -1022 c8 -8 12 -59 12 -165 0 -140 -2 -153 -19 -163 -28 -15 -73 -12
-99 6 -21 14 -22 22 -22 156 0 164 6 178 75 178 22 0 46 -5 53 -12z m253 2
c17 -10 19 -23 19 -160 0 -122 -3 -151 -16 -164 -20 -20 -73 -20 -102 0 -21
14 -22 22 -22 159 0 117 3 146 16 159 18 18 76 21 105 6z m257 -2 c8 -8 12
-59 12 -165 0 -140 -2 -153 -19 -163 -28 -15 -73 -12 -99 6 -21 14 -22 22 -22
156 0 164 6 178 75 178 22 0 46 -5 53 -12z m212 -13 c0 -21 5 -25 33 -26 30
-2 30 -2 -8 -8 l-40 -6 -3 -142 c-1 -79 -6 -143 -10 -143 -4 0 -18 7 -30 16
-21 14 -22 22 -22 159 0 156 6 175 56 175 19 0 24 -5 24 -25z m1999 11 c17
-20 11 -318 -7 -324 -10 -3 -13 25 -11 135 l1 138 -58 6 -59 6 53 1 c48 2 52
4 52 27 0 28 12 32 29 11z m252 4 c17 -10 19 -23 19 -160 0 -122 -3 -151 -16
-164 -20 -20 -73 -20 -102 0 -21 14 -22 22 -22 159 0 117 3 146 16 159 18 18
76 21 105 6z m257 -2 c8 -8 12 -59 12 -165 0 -140 -2 -153 -19 -163 -28 -15
-73 -12 -99 6 -21 14 -22 22 -22 156 0 164 6 178 75 178 22 0 46 -5 53 -12z
m253 2 c17 -10 19 -23 19 -160 0 -143 -1 -150 -22 -164 -12 -9 -34 -16 -48
-16 -14 0 -36 7 -48 16 -21 14 -22 22 -22 164 0 131 2 150 18 159 22 14 78 14
103 1z m-5371 -54 l0 -53 -49 0 -50 0 0 52 0 52 50 2 49 1 0 -54z m1420 28 c0
-22 -4 -24 -50 -24 -46 0 -50 2 -50 24 0 21 4 23 50 23 46 0 50 -2 50 -23z
m4410 -29 l0 -55 -49 1 -50 2 0 52 0 52 50 2 49 1 0 -55z m1418 -25 l0 -80
-29 0 c-21 0 -29 5 -30 18 -1 16 -2 16 -6 0 -6 -25 -33 -23 -33 2 0 15 7 20
26 20 14 0 23 4 20 9 -3 5 -15 7 -26 4 -16 -4 -20 0 -20 22 0 22 4 26 20 22
11 -3 23 -1 26 4 3 5 -6 9 -20 9 -21 0 -26 5 -26 24 0 21 4 23 49 24 l49 2 0
-80z m-6928 46 c0 -21 -4 -23 -50 -25 -47 -1 -50 1 -50 24 0 23 3 25 50 25 46
0 50 -2 50 -24z m780 -1 c0 -23 -3 -25 -50 -25 -47 0 -50 2 -50 25 0 23 3 25
50 25 47 0 50 -2 50 -25z m2803 18 c-172 -2 -454 -2 -625 0 -172 1 -32 2 312
2 344 0 484 -1 313 -2z m2247 -18 c0 -23 -3 -25 -50 -25 -47 0 -50 2 -50 25 0
23 3 25 50 25 47 0 50 -2 50 -25z m790 -1 c0 -24 -2 -25 -52 -22 -46 3 -53 6
-56 26 -3 21 0 22 52 22 53 0 56 -1 56 -26z m-6220 -9 c0 -24 -3 -25 -55 -25
-52 0 -55 1 -55 25 0 24 3 25 55 25 52 0 55 -1 55 -25z m5830 0 c0 -20 -5 -22
-55 -24 -52 -1 -55 0 -55 24 0 24 3 25 55 24 50 -2 55 -4 55 -24z m-2265 5
c55 -3 -264 -7 -710 -6 -445 0 -765 3 -710 6 142 9 1300 9 1420 0z m-2865 -45
c0 -20 -5 -22 -50 -22 -45 0 -50 2 -50 22 0 20 5 22 50 22 45 0 50 -2 50 -22z
m-1102 -35 l1 -47 -50 -2 -49 -1 0 50 0 50 49 -1 49 -2 0 -47z m782 0 l0 -50
-49 0 -49 0 0 50 0 50 49 0 49 0 0 -50z m5050 0 l0 -50 -50 0 -50 0 0 50 0 50
50 0 50 0 0 -50z m788 0 l0 -51 -52 3 -51 3 -1 40 c-1 22 0 43 2 46 2 3 25 7
52 8 l50 1 0 -50z m-6218 20 c0 -18 -7 -20 -55 -20 -48 0 -55 2 -55 20 0 18 7
20 55 20 48 0 55 -2 55 -20z m3213 13 c-189 -2 -497 -2 -685 0 -189 1 -35 2
342 2 377 0 531 -1 343 -2z m2617 -12 c0 -16 -8 -18 -55 -18 -47 0 -55 2 -55
18 0 16 8 19 55 19 47 0 55 -3 55 -19z m-2617 -18 c-188 -2 -498 -2 -690 0
-191 1 -37 2 342 2 380 0 536 -1 348 -2z m-3933 -23 c0 -17 -7 -20 -50 -20
-43 0 -50 3 -50 20 0 17 7 20 50 20 43 0 50 -3 50 -20z m1420 0 c0 -17 -7 -20
-50 -20 -43 0 -50 3 -50 20 0 17 7 20 50 20 43 0 50 -3 50 -20z m4410 0 c0
-17 -7 -20 -50 -20 -43 0 -50 3 -50 20 0 17 7 20 50 20 43 0 50 -3 50 -20z
m-5112 -7 c-2 -14 -15 -19 -56 -21 -47 -3 -52 -1 -52 17 0 19 6 21 56 21 47 0
55 -3 52 -17z m3215 10 c-189 -2 -497 -2 -685 0 -189 1 -35 2 342 2 377 0 531
-1 343 -2z m2617 -12 c0 -16 -8 -19 -55 -20 -49 -1 -55 1 -55 19 0 18 7 20 55
20 47 0 55 -3 55 -19z m-2617 -18 c-188 -2 -498 -2 -690 0 -191 1 -37 2 342 2
380 0 536 -1 348 -2z m-3933 -38 l0 -35 -50 1 c-49 2 -50 2 -50 34 0 32 1 32
50 34 l50 1 0 -35z m1420 0 c0 -32 0 -32 -50 -32 -50 0 -50 0 -50 32 0 32 0
32 50 32 50 0 50 0 50 -32z m4410 0 l0 -35 -50 1 c-49 2 -50 2 -50 34 0 32 1
32 50 34 l50 1 0 -35z m1420 0 l0 -35 -50 1 c-49 2 -50 2 -50 34 0 32 1 32 50
34 l50 1 0 -35z m-6932 -7 c-3 -30 -5 -32 -50 -33 l-48 -2 0 33 0 34 51 0 50
0 -3 -32z m402 2 c0 -30 -1 -30 -55 -30 -54 0 -55 0 -55 30 0 30 1 30 55 30
54 0 55 0 55 -30z m380 -3 l0 -34 -47 2 c-46 2 -48 4 -51 34 l-3 31 50 0 51 0
0 -33z m2833 26 c-189 -2 -497 -2 -685 0 -189 1 -35 2 342 2 377 0 531 -1 343
-2z m2215 -25 c-3 -32 -5 -33 -48 -33 -43 0 -45 1 -48 33 l-3 32 51 0 51 0 -3
-32z m402 3 c0 -28 -1 -28 -55 -28 -54 0 -55 0 -55 28 0 28 1 29 55 29 54 0
55 -1 55 -29z m388 -3 c-3 -31 -4 -31 -53 -32 -49 -1 -50 -1 -53 32 l-3 32 56
0 56 0 -3 -32z m-3005 -5 c-188 -2 -498 -2 -690 0 -191 1 -37 2 342 2 380 0
536 -1 348 -2z m0 -30 c-189 -2 -497 -2 -685 0 -189 1 -35 2 342 2 377 0 531
-1 343 -2z m0 -20 c-188 -2 -498 -2 -690 0 -191 1 -37 2 342 2 380 0 536 -1
348 -2z m0 -30 c-189 -2 -497 -2 -685 0 -189 1 -35 2 342 2 377 0 531 -1 343
-2z m0 -20 c-189 -2 -497 -2 -685 0 -189 1 -35 2 342 2 377 0 531 -1 343 -2z
m0 -30 c-188 -2 -498 -2 -690 0 -191 1 -37 2 342 2 380 0 536 -1 348 -2z"/>
<path d="M9932 8295 c0 -16 2 -22 5 -12 2 9 2 23 0 30 -3 6 -5 -1 -5 -18z"/>
<path d="M10112 8295 c0 -16 2 -22 5 -12 2 9 2 23 0 30 -3 6 -5 -1 -5 -18z"/>
<path d="M3060 8295 c0 -14 4 -25 9 -25 4 0 6 11 3 25 -2 14 -6 25 -8 25 -2 0
-4 -11 -4 -25z"/>
<path d="M3262 8295 c0 -16 2 -22 5 -12 2 9 2 23 0 30 -3 6 -5 -1 -5 -18z"/>
<path d="M3772 8295 c0 -16 2 -22 5 -12 2 9 2 23 0 30 -3 6 -5 -1 -5 -18z"/>
<path d="M4492 8295 c0 -16 2 -22 5 -12 2 9 2 23 0 30 -3 6 -5 -1 -5 -18z"/>
<path d="M4532 8295 c0 -16 2 -22 5 -12 2 9 2 23 0 30 -3 6 -5 -1 -5 -18z"/>
<path d="M4555 8295 c0 -14 3 -25 8 -25 4 0 7 11 7 25 0 14 -3 25 -7 25 -5 0
-8 -11 -8 -25z"/>
<path d="M4862 8295 c0 -16 2 -22 5 -12 2 9 2 23 0 30 -3 6 -5 -1 -5 -18z"/>
<path d="M5001 8284 c0 -11 3 -14 6 -6 3 7 2 16 -1 19 -3 4 -6 -2 -5 -13z"/>
<path d="M7501 8284 c0 -11 3 -14 6 -6 3 7 2 16 -1 19 -3 4 -6 -2 -5 -13z"/>
<path d="M7541 8284 c0 -11 3 -14 6 -6 3 7 2 16 -1 19 -3 4 -6 -2 -5 -13z"/>
<path d="M7581 8284 c0 -11 3 -14 6 -6 3 7 2 16 -1 19 -3 4 -6 -2 -5 -13z"/>
<path d="M7722 8295 c0 -16 2 -22 5 -12 2 9 2 23 0 30 -3 6 -5 -1 -5 -18z"/>
<path d="M7795 8295 c0 -14 3 -25 8 -25 4 0 7 11 7 25 0 14 -3 25 -7 25 -5 0
-8 -11 -8 -25z"/>
<path d="M7835 8295 c0 -14 3 -25 8 -25 4 0 7 11 7 25 0 14 -3 25 -7 25 -5 0
-8 -11 -8 -25z"/>
<path d="M7872 8295 c0 -16 2 -22 5 -12 2 9 2 23 0 30 -3 6 -5 -1 -5 -18z"/>
<path d="M8102 8295 c0 -16 2 -22 5 -12 2 9 2 23 0 30 -3 6 -5 -1 -5 -18z"/>
<path d="M8578 8295 c-4 -19 -1 -25 12 -25 13 0 16 6 12 25 -2 14 -8 25 -12
25 -4 0 -10 -11 -12 -25z"/>
<path d="M9642 8295 c0 -16 2 -22 5 -12 2 9 2 23 0 30 -3 6 -5 -1 -5 -18z"/>
<path d="M5081 8284 c0 -11 3 -14 6 -6 3 7 2 16 -1 19 -3 4 -6 -2 -5 -13z"/>
<path d="M5111 8284 c0 -11 3 -14 6 -6 3 7 2 16 -1 19 -3 4 -6 -2 -5 -13z"/>
<path d="M2655 6950 c3 -5 8 -10 11 -10 2 0 4 5 4 10 0 6 -5 10 -11 10 -5 0
-7 -4 -4 -10z"/>
<path d="M2690 6949 c0 -5 5 -7 10 -4 6 3 10 8 10 11 0 2 -4 4 -10 4 -5 0 -10
-5 -10 -11z"/>
<path d="M8490 6949 c0 -5 5 -7 10 -4 6 3 10 8 10 11 0 2 -4 4 -10 4 -5 0 -10
-5 -10 -11z"/>
<path d="M9940 6950 c0 -5 5 -10 10 -10 6 0 10 5 10 10 0 6 -4 10 -10 10 -5 0
-10 -4 -10 -10z"/>
<path d="M2975 6890 c3 -5 8 -10 11 -10 2 0 4 5 4 10 0 6 -5 10 -11 10 -5 0
-7 -4 -4 -10z"/>
<path d="M3010 6889 c0 -5 5 -7 10 -4 6 3 10 8 10 11 0 2 -4 4 -10 4 -5 0 -10
-5 -10 -11z"/>
<path d="M3760 6889 c0 -5 5 -7 10 -4 6 3 10 8 10 11 0 2 -4 4 -10 4 -5 0 -10
-5 -10 -11z"/>
<path d="M3795 6890 c3 -5 8 -10 11 -10 2 0 4 5 4 10 0 6 -5 10 -11 10 -5 0
-7 -4 -4 -10z"/>
<path d="M8805 6890 c3 -5 8 -10 11 -10 2 0 4 5 4 10 0 6 -5 10 -11 10 -5 0
-7 -4 -4 -10z"/>
<path d="M8840 6889 c0 -5 5 -7 10 -4 6 3 10 8 10 11 0 2 -4 4 -10 4 -5 0 -10
-5 -10 -11z"/>
<path d="M9590 6889 c0 -5 5 -7 10 -4 6 3 10 8 10 11 0 2 -4 4 -10 4 -5 0 -10
-5 -10 -11z"/>
<path d="M9625 6890 c3 -5 8 -10 11 -10 2 0 4 5 4 10 0 6 -5 10 -11 10 -5 0
-7 -4 -4 -10z"/>
<path d="M9911 6804 c0 -11 3 -14 6 -6 3 7 2 16 -1 19 -3 4 -6 -2 -5 -13z"/>
<path d="M3180 8640 l0 -80 215 0 215 0 0 80 0 80 -215 0 -215 0 0 -80z m55
-5 c0 -44 -3 -50 -22 -53 -22 -3 -23 0 -23 53 0 53 1 56 23 53 19 -3 22 -9 22
-53z m93 -2 l3 -53 -35 0 -36 0 0 48 c0 56 5 64 40 60 23 -3 25 -8 28 -55z
m90 -1 l3 -53 -33 3 c-30 3 -33 6 -36 42 -5 54 3 68 35 64 26 -3 28 -6 31 -56z
m92 3 c0 -54 0 -55 -30 -55 -30 0 -30 1 -30 55 0 54 0 55 30 55 30 0 30 -1 30
-55z m80 0 c0 -48 -2 -55 -20 -55 -18 0 -20 7 -20 55 0 48 2 55 20 55 18 0 20
-7 20 -55z"/>
<path d="M9010 8640 l0 -80 215 0 215 0 0 80 0 80 -215 0 -215 0 0 -80z m58
-7 c3 -51 2 -53 -22 -53 -25 0 -26 3 -26 56 0 52 1 55 23 52 19 -3 22 -10 25
-55z m92 2 c0 -54 0 -55 -30 -55 -30 0 -30 1 -30 55 0 54 0 55 30 55 30 0 30
-1 30 -55z m90 0 c0 -54 0 -55 -30 -55 -30 0 -30 1 -30 55 0 54 0 55 30 55 30
0 30 -1 30 -55z m90 0 c0 -54 0 -55 -30 -55 -30 0 -30 1 -30 55 0 54 0 55 30
55 30 0 30 -1 30 -55z m80 0 c0 -48 -2 -55 -20 -55 -18 0 -20 7 -20 55 0 48 2
55 20 55 18 0 20 -7 20 -55z"/>
<path d="M3065 8519 c-73 -20 -252 -105 -295 -139 -25 -20 -24 -20 620 -20
643 0 645 1 620 20 -46 36 -175 99 -267 130 l-91 30 -258 -1 c-225 0 -268 -3
-329 -20z"/>
<path d="M8895 8519 c-81 -23 -236 -97 -280 -134 l-30 -24 640 0 c638 -1 640
-1 615 19 -46 36 -194 108 -278 134 -81 25 -90 26 -340 25 -225 0 -266 -3
-327 -20z"/>
<path d="M2357 8003 c-4 -3 -7 -192 -7 -420 l0 -413 1075 0 1075 0 0 55 0 55
-37 1 c-31 2 -33 3 -10 6 l27 4 0 314 0 314 -27 4 c-26 4 -25 4 5 6 32 1 33 2
30 39 l-3 37 -1061 3 c-583 1 -1064 -1 -1067 -5z m301 -188 c-2 -19 0 -35 4
-35 4 0 8 15 8 33 0 31 3 34 30 35 30 1 30 0 30 -54 0 -53 0 -54 -30 -54 -21
0 -30 5 -31 18 -1 16 -2 16 -6 0 -2 -10 -10 -18 -18 -18 -9 0 -13 16 -14 55 0
44 3 55 15 55 13 0 15 -8 12 -35z m1491 -21 l-1 -54 -48 0 -48 0 -1 54 0 53
49 0 49 0 0 -53z m-1099 20 c0 -22 -4 -24 -50 -24 -47 0 -50 2 -50 25 0 23 3
25 50 24 46 -2 50 -4 50 -25z m364 13 c38 -27 -2 -95 -41 -71 -25 16 -29 55
-7 71 10 7 21 13 24 13 3 0 14 -6 24 -13z m416 -12 c0 -23 -3 -25 -50 -25 -47
0 -50 2 -50 25 0 23 3 25 50 25 47 0 50 -2 50 -25z m-780 -60 c0 -20 -5 -22
-50 -22 -45 0 -50 2 -50 22 0 20 5 22 50 22 45 0 50 -2 50 -22z m780 0 c0 -19
-5 -22 -50 -22 -46 -1 -50 1 -50 22 0 21 4 23 50 22 45 0 50 -3 50 -22z m-412
-217 c3 -24 0 -28 -22 -28 -22 0 -26 4 -26 31 0 26 3 30 23 27 16 -2 23 -11
25 -30z m-72 -25 c-11 -11 -17 4 -9 23 7 18 8 18 11 1 2 -10 1 -21 -2 -24z
m104 11 c0 -8 -4 -14 -10 -14 -5 0 -10 9 -10 21 0 11 5 17 10 14 6 -3 10 -13
10 -21z m-100 -44 c0 -11 -4 -20 -10 -20 -5 0 -10 9 -10 20 0 11 5 20 10 20 6
0 10 -9 10 -20z m68 -2 c3 -13 -3 -18 -22 -18 -20 0 -26 5 -26 21 0 15 5 20
22 17 13 -2 24 -11 26 -20z m28 -15 c-11 -11 -19 6 -11 24 8 17 8 17 12 0 3
-10 2 -21 -1 -24z m-706 -18 c0 -24 -3 -25 -55 -25 -52 0 -55 1 -55 25 0 24 3
25 55 25 52 0 55 -1 55 -25z m241 3 l2 -23 4 23 c3 17 11 22 34 22 24 0 29 -4
29 -25 0 -23 -3 -25 -50 -25 -47 0 -50 2 -50 25 0 32 29 34 31 3z m849 -3 c0
-23 -3 -25 -50 -25 -47 0 -50 2 -50 25 0 23 3 25 50 25 47 0 50 -2 50 -25z
m320 0 c0 -23 -3 -25 -50 -25 -47 0 -50 2 -50 25 0 23 3 25 50 25 47 0 50 -2
50 -25z m-800 -10 c0 -8 -4 -15 -10 -15 -5 0 -10 7 -10 15 0 8 5 15 10 15 6 0
10 -7 10 -15z m70 0 c0 -9 -9 -15 -25 -15 -16 0 -25 6 -25 15 0 9 9 15 25 15
16 0 25 -6 25 -15z m30 0 c0 -8 -4 -15 -10 -15 -5 0 -10 7 -10 15 0 8 5 15 10
15 6 0 10 -7 10 -15z m-713 -76 l2 -46 -53 -2 -54 -1 0 49 0 50 52 -2 51 -2 2
-46z m313 1 l0 -50 -49 1 -49 2 0 47 -1 47 50 2 49 1 0 -50z m298 10 c0 -22
-3 -40 -9 -40 -5 0 -9 18 -9 40 0 22 4 40 9 40 5 0 9 -18 9 -40z m69 0 c0 -35
-2 -40 -23 -40 -21 0 -24 5 -24 40 0 35 3 40 24 40 21 0 23 -5 23 -40z m33 0
c0 -22 -4 -40 -9 -40 -4 0 -8 18 -8 40 0 22 4 40 8 40 5 0 9 -18 9 -40z m380
-11 l0 -49 -50 1 -50 2 0 47 0 47 50 0 50 0 0 -48z m318 0 l0 -49 -49 0 -49 0
0 50 0 50 49 -1 50 -2 -1 -48z m-798 -54 c0 -8 -4 -15 -10 -15 -5 0 -10 7 -10
15 0 8 5 15 10 15 6 0 10 -7 10 -15z m70 0 c0 -9 -9 -15 -25 -15 -16 0 -25 6
-25 15 0 9 9 15 25 15 16 0 25 -6 25 -15z m30 0 c0 -8 -4 -15 -10 -15 -5 0
-10 7 -10 15 0 8 5 15 10 15 6 0 10 -7 10 -15z m-712 -39 c-3 -30 -4 -31 -53
-31 -49 0 -50 1 -53 32 l-3 33 56 -1 56 -2 -3 -31z m243 7 l2 -28 4 28 c4 22
9 27 34 27 26 0 29 -3 29 -33 0 -32 0 -33 -50 -34 l-50 -1 0 34 c0 43 29 49
31 7z m849 -7 l0 -33 -50 0 c-50 0 -50 0 -50 32 0 32 1 32 50 34 l50 1 0 -34z
m318 2 c-3 -32 -4 -33 -50 -34 -48 -1 -48 -1 -48 33 l0 33 51 0 50 0 -3 -32z
m-798 -13 c0 -14 -4 -25 -10 -25 -5 0 -10 11 -10 25 0 14 5 25 10 25 6 0 10
-11 10 -25z m68 3 c-2 -15 -11 -24 -25 -26 -19 -3 -23 1 -23 22 0 21 5 26 26
26 21 0 25 -4 22 -22z m32 -3 c0 -14 -4 -25 -10 -25 -5 0 -10 11 -10 25 0 14
5 25 10 25 6 0 10 -11 10 -25z"/>
<path d="M2690 7790 c0 -5 5 -10 11 -10 5 0 7 5 4 10 -3 6 -8 10 -11 10 -2 0
-4 -4 -4 -10z"/>
<path d="M4075 7790 c-3 -5 -1 -10 4 -10 6 0 11 5 11 10 0 6 -2 10 -4 10 -3 0
-8 -4 -11 -10z"/>
<path d="M4110 7790 c0 -5 5 -10 11 -10 5 0 7 5 4 10 -3 6 -8 10 -11 10 -2 0
-4 -4 -4 -10z"/>
<path d="M2660 7360 c0 -5 5 -10 10 -10 6 0 10 5 10 10 0 6 -4 10 -10 10 -5 0
-10 -4 -10 -10z"/>
<path d="M3010 7360 c0 -5 5 -10 10 -10 6 0 10 5 10 10 0 6 -4 10 -10 10 -5 0
-10 -4 -10 -10z"/>
<path d="M4070 7360 c0 -5 5 -10 10 -10 6 0 10 5 10 10 0 6 -4 10 -10 10 -5 0
-10 -4 -10 -10z"/>
<path d="M4657 8004 c-4 -4 -7 -22 -7 -41 0 -32 1 -33 41 -33 l40 0 -3 38 c-3
33 -6 37 -33 40 -17 2 -34 0 -38 -4z"/>
<path d="M4910 7971 l0 -41 41 0 40 0 -3 38 c-3 35 -5 37 -40 40 l-38 3 0 -40z"/>
<path d="M5167 8003 c-4 -3 -7 -21 -7 -40 0 -32 1 -33 40 -33 l40 0 0 40 c0
39 -1 40 -33 40 -19 0 -37 -3 -40 -7z"/>
<path d="M7377 8003 c-4 -3 -7 -21 -7 -40 0 -32 1 -33 40 -33 l40 0 0 40 c0
39 -1 40 -33 40 -19 0 -37 -3 -40 -7z"/>
<path d="M7630 7971 l0 -41 41 0 40 0 -3 38 c-3 35 -5 37 -40 40 l-38 3 0 -40z"/>
<path d="M7890 7970 c0 -39 1 -40 35 -40 34 0 35 1 35 40 0 39 -1 40 -35 40
-34 0 -35 -1 -35 -40z"/>
<path d="M8130 7970 c0 -37 2 -40 28 -41 23 -2 24 -2 5 -6 l-23 -4 0 -314 0
-314 23 -4 c13 -3 8 -5 -15 -6 l-38 -1 0 -55 0 -55 1075 0 1075 0 0 420 0 420
-1065 0 -1065 0 0 -40z m430 -177 l0 -53 -49 0 -49 0 0 48 c0 26 2 50 4 53 2
3 24 6 49 5 l45 0 0 -53z m1420 0 c0 -52 0 -53 -30 -53 -21 0 -30 5 -31 18 -1
16 -2 16 -6 0 -2 -10 -10 -18 -18 -18 -9 0 -13 16 -14 54 l0 54 49 -1 50 -1 0
-53z m-1100 22 c0 -23 -3 -25 -50 -25 -47 0 -50 2 -50 25 0 23 3 25 50 25 47
0 50 -2 50 -25z m375 1 c21 -31 5 -66 -28 -66 -44 0 -62 43 -31 74 22 23 41
20 59 -8z m415 -1 c0 -24 -3 -25 -55 -25 -47 0 -55 3 -55 18 0 26 4 29 60 31
47 1 50 0 50 -24z m-790 -60 c0 -20 -5 -22 -50 -22 -45 0 -50 2 -50 22 0 20 5
22 50 22 45 0 50 -2 50 -22z m790 0 c0 -21 -4 -23 -50 -22 -52 0 -66 8 -57 31
3 8 24 13 56 13 47 1 51 -1 51 -22z m-422 -217 c3 -24 0 -28 -22 -28 -22 0
-26 4 -26 31 0 26 3 30 23 27 16 -2 23 -11 25 -30z m-72 -25 c-11 -11 -17 4
-9 23 7 18 8 18 11 1 2 -10 1 -21 -2 -24z m104 17 c9 -16 8 -20 -5 -20 -8 0
-15 9 -15 20 0 11 2 20 5 20 2 0 9 -9 15 -20z m-100 -50 c0 -11 -4 -20 -10
-20 -5 0 -10 9 -10 20 0 11 5 20 10 20 6 0 10 -9 10 -20z m68 -2 c3 -13 -3
-18 -22 -18 -20 0 -26 5 -26 21 0 15 5 20 22 17 13 -2 24 -11 26 -20z m42 -4
c0 -16 -16 -19 -25 -4 -8 13 4 32 16 25 5 -4 9 -13 9 -21z m-720 -29 c0 -23
-3 -25 -50 -25 -47 0 -50 2 -50 25 0 23 3 25 50 25 47 0 50 -2 50 -25z m310 0
c0 -23 -3 -25 -50 -25 -47 0 -50 2 -50 25 0 23 3 25 50 25 47 0 50 -2 50 -25z
m780 0 c0 -23 -3 -25 -50 -25 -47 0 -50 2 -50 25 0 23 3 25 50 25 47 0 50 -2
50 -25z m320 0 c0 -23 -3 -25 -50 -25 -47 0 -50 2 -50 25 0 23 3 25 50 25 47
0 50 -2 50 -25z m-800 -10 c0 -8 -4 -15 -10 -15 -5 0 -10 7 -10 15 0 8 5 15
10 15 6 0 10 -7 10 -15z m70 0 c0 -9 -9 -15 -25 -15 -16 0 -25 6 -25 15 0 9 9
15 25 15 16 0 25 -6 25 -15z m40 0 c0 -8 -7 -15 -15 -15 -8 0 -15 7 -15 15 0
8 7 15 15 15 8 0 15 -7 15 -15z m-722 -76 l0 -49 -49 0 -49 0 0 50 0 50 49 -1
49 -2 0 -48z m313 36 c1 -8 1 -24 1 -35 0 -49 0 -50 -51 -49 l-49 2 0 47 0 47
49 2 c37 0 49 -3 50 -14z m299 -25 c0 -22 -4 -40 -9 -40 -6 0 -9 18 -9 40 0
22 4 40 9 40 5 0 9 -18 9 -40z m67 0 c0 -35 -2 -40 -23 -40 -21 0 -24 5 -24
40 0 35 3 40 24 40 21 0 23 -5 23 -40z m40 0 c0 -25 -4 -40 -12 -40 -8 0 -12
15 -12 40 0 25 4 40 12 40 8 0 12 -15 12 -40z m373 -10 l0 -50 -49 0 -49 0 0
49 -1 48 50 2 49 1 0 -50z m320 0 l0 -50 -50 0 -50 0 0 50 0 50 50 0 50 0 0
-50z m-800 -55 c0 -8 -4 -15 -10 -15 -5 0 -10 7 -10 15 0 8 5 15 10 15 6 0 10
-7 10 -15z m70 0 c0 -9 -9 -15 -25 -15 -16 0 -25 6 -25 15 0 9 9 15 25 15 16
0 25 -6 25 -15z m40 0 c0 -8 -7 -15 -15 -15 -8 0 -15 7 -15 15 0 8 7 15 15 15
8 0 15 -7 15 -15z m-722 -37 c-3 -32 -4 -33 -50 -34 -48 -1 -48 -1 -48 33 l0
33 51 0 50 0 -3 -32z m312 7 c0 -14 1 -28 3 -32 1 -5 -20 -8 -48 -8 -49 0 -50
1 -53 31 -3 31 -3 31 47 33 48 1 51 -1 51 -24z m780 -8 c0 -32 0 -33 -50 -34
l-50 -1 0 34 0 34 50 0 c50 0 50 0 50 -33z m320 -1 l0 -34 -50 1 c-50 1 -50 2
-50 34 0 33 0 33 50 33 l50 0 0 -34z m-800 -11 c0 -14 -4 -25 -10 -25 -5 0
-10 11 -10 25 0 14 5 25 10 25 6 0 10 -11 10 -25z m70 0 c0 -20 -5 -25 -25
-25 -20 0 -25 5 -25 25 0 20 5 25 25 25 20 0 25 -5 25 -25z m38 3 c-2 -13 -7
-23 -13 -23 -5 0 -11 10 -13 23 -2 15 2 22 13 22 11 0 15 -7 13 -22z"/>
<path d="M8490 7790 c0 -5 5 -10 11 -10 5 0 7 5 4 10 -3 6 -8 10 -11 10 -2 0
-4 -4 -4 -10z"/>
<path d="M8520 7790 c0 -5 5 -10 10 -10 6 0 10 5 10 10 0 6 -4 10 -10 10 -5 0
-10 -4 -10 -10z"/>
<path d="M9905 7790 c-3 -5 1 -10 10 -10 9 0 13 5 10 10 -3 6 -8 10 -10 10 -2
0 -7 -4 -10 -10z"/>
<path d="M9940 7790 c0 -5 5 -10 10 -10 6 0 10 5 10 10 0 6 -4 10 -10 10 -5 0
-10 -4 -10 -10z"/>
<path d="M8490 7360 c0 -5 5 -10 10 -10 6 0 10 5 10 10 0 6 -4 10 -10 10 -5 0
-10 -4 -10 -10z"/>
<path d="M8840 7360 c0 -5 5 -10 10 -10 6 0 10 5 10 10 0 6 -4 10 -10 10 -5 0
-10 -4 -10 -10z"/>
<path d="M9620 7360 c0 -5 5 -10 10 -10 6 0 10 5 10 10 0 6 -4 10 -10 10 -5 0
-10 -4 -10 -10z"/>
<path d="M9905 7360 c-3 -5 -1 -10 4 -10 6 0 11 5 11 10 0 6 -2 10 -4 10 -3 0
-8 -4 -11 -10z"/>
<path d="M4660 7605 l0 -315 30 0 30 0 0 315 0 315 -30 0 -30 0 0 -315z"/>
<path d="M4920 7605 l0 -316 28 3 27 3 0 310 0 310 -27 3 -28 3 0 -316z"/>
<path d="M5170 7605 l0 -315 30 0 30 0 0 315 0 315 -30 0 -30 0 0 -315z"/>
<path d="M7385 7907 c-3 -7 -4 -147 -3 -312 l3 -300 28 -3 27 -3 0 315 0 316
-25 0 c-14 0 -28 -6 -30 -13z"/>
<path d="M7640 7605 l0 -316 28 3 27 3 0 310 0 310 -27 3 -28 3 0 -316z"/>
<path d="M7900 7605 l0 -315 25 0 25 0 0 315 0 315 -25 0 -25 0 0 -315z"/>
<path d="M4632 7228 l3 -53 53 -3 52 -3 0 55 0 56 -56 0 -55 0 3 -52z"/>
<path d="M4890 7225 l0 -55 55 0 55 0 0 55 0 55 -55 0 -55 0 0 -55z"/>
<path d="M5150 7224 l0 -55 53 3 52 3 3 53 3 52 -55 0 -56 0 0 -56z"/>
<path d="M7360 7225 l0 -55 55 0 55 0 0 55 0 55 -55 0 -55 0 0 -55z"/>
<path d="M7610 7225 l0 -55 55 0 55 0 0 55 0 55 -55 0 -55 0 0 -55z"/>
<path d="M7870 7225 l0 -55 55 0 55 0 0 55 0 55 -55 0 -55 0 0 -55z"/>
<path d="M0 3120 l0 -3120 6400 0 6400 0 0 3120 0 3120 -6400 0 -6400 0 0
-3120z"/>
</g>
</svg>
